<mxfile modified="2020-06-06T19:33:58.099Z" host="app.diagrams.net" agent="5.0 (Macintosh; Intel Mac OS X 10_14_0) AppleWebKit/537.36 (KHTML, like Gecko) Chrome/81.0.4044.138 Safari/537.36" etag="uU_Nk4RGv1j1VJe-xLcn" version="13.1.14" type="github">
  <diagram id="d1ab7348-05c3-a1e3-ca4d-12c340fd6b49" name="Page-1">
    <mxGraphModel dx="946" dy="565" grid="1" gridSize="10" guides="1" tooltips="1" connect="1" arrows="1" fold="1" page="1" pageScale="1" pageWidth="1169" pageHeight="827" background="#ffffff" math="0" shadow="0">
      <root>
        <mxCell id="0" />
        <mxCell id="1" parent="0" />
        <mxCell id="2" value="&lt;b&gt;Google &lt;/b&gt;Cloud Platform" style="fillColor=#F6F6F6;strokeColor=none;shadow=0;gradientColor=none;fontSize=14;align=left;spacing=10;fontColor=#717171;9E9E9E;verticalAlign=top;spacingTop=-4;fontStyle=0;spacingLeft=40;html=1;" parent="1" vertex="1">
          <mxGeometry x="228.5" y="45" width="640" height="520" as="geometry" />
        </mxCell>
        <mxCell id="3" value="" style="shape=mxgraph.gcp2.google_cloud_platform;fillColor=#F6F6F6;strokeColor=none;shadow=0;gradientColor=none;" parent="2" vertex="1">
          <mxGeometry width="23" height="20" relative="1" as="geometry">
            <mxPoint x="20" y="10" as="offset" />
          </mxGeometry>
        </mxCell>
        <mxCell id="406" style="edgeStyle=orthogonalEdgeStyle;rounded=0;html=1;dashed=0;labelBackgroundColor=none;startArrow=none;startFill=0;startSize=4;endArrow=blockThin;endFill=1;endSize=4;strokeColor=#4284F3;strokeWidth=2;fontSize=12;" parent="1" target="384" edge="1">
          <mxGeometry relative="1" as="geometry">
            <Array as="points">
              <mxPoint x="648.5" y="550" />
              <mxPoint x="648.5" y="440" />
            </Array>
            <mxPoint x="598.5" y="550" as="sourcePoint" />
          </mxGeometry>
        </mxCell>
        <mxCell id="407" style="edgeStyle=orthogonalEdgeStyle;rounded=0;html=1;dashed=0;labelBackgroundColor=none;startArrow=none;startFill=0;startSize=4;endArrow=blockThin;endFill=1;endSize=4;strokeColor=#4284F3;strokeWidth=2;fontSize=12;" parent="1" source="371" edge="1">
          <mxGeometry relative="1" as="geometry">
            <Array as="points">
              <mxPoint x="648.5" y="550" />
              <mxPoint x="648.5" y="235" />
            </Array>
            <mxPoint x="680.5" y="235" as="targetPoint" />
          </mxGeometry>
        </mxCell>
        <mxCell id="341" value="Streaming" style="rounded=1;absoluteArcSize=1;arcSize=2;html=1;strokeColor=#4284F3;gradientColor=none;shadow=0;dashed=1;fontSize=12;fontColor=#9E9E9E;align=left;verticalAlign=top;spacing=10;spacingTop=-4;fillColor=none;dashPattern=1 2;strokeWidth=2;" parent="1" vertex="1">
          <mxGeometry x="70" y="95" width="640" height="210" as="geometry" />
        </mxCell>
        <mxCell id="340" value="TerramEarth&lt;br&gt;&lt;font style=&quot;font-size: 10px&quot;&gt;20 million vehicles &lt;br&gt;around the world&lt;/font&gt;" style="rounded=1;absoluteArcSize=1;arcSize=2;html=1;strokeColor=none;gradientColor=none;shadow=0;dashed=0;fontSize=12;fontColor=#9E9E9E;align=left;verticalAlign=top;spacing=10;spacingTop=-4;fillColor=#EFEBE9;" parent="1" vertex="1">
          <mxGeometry x="90" y="160" width="130.5" height="140" as="geometry" />
        </mxCell>
        <mxCell id="338" value="" style="strokeColor=#dddddd;fillColor=#ffffff;shadow=1;strokeWidth=1;rounded=1;absoluteArcSize=1;arcSize=2;labelPosition=center;verticalLabelPosition=middle;align=center;verticalAlign=bottom;spacingLeft=0;fontColor=#999999;fontSize=12;whiteSpace=wrap;spacingBottom=2;html=1;" parent="1" vertex="1">
          <mxGeometry x="120.25" y="215.1" width="70" height="70" as="geometry" />
        </mxCell>
        <mxCell id="399" style="edgeStyle=orthogonalEdgeStyle;rounded=0;html=1;dashed=0;labelBackgroundColor=none;startArrow=none;startFill=0;startSize=4;endArrow=blockThin;endFill=1;endSize=4;strokeColor=#4284F3;strokeWidth=2;fontSize=12;" parent="1" source="361" target="363" edge="1">
          <mxGeometry relative="1" as="geometry" />
        </mxCell>
        <mxCell id="361" value="" style="strokeColor=#dddddd;fillColor=#ffffff;shadow=1;strokeWidth=1;rounded=1;absoluteArcSize=1;arcSize=2;fontSize=12;fontColor=#9E9E9E;align=center;html=1;" parent="1" vertex="1">
          <mxGeometry x="485" y="225" width="200" height="62.4" as="geometry" />
        </mxCell>
        <mxCell id="362" value="&lt;font color=&quot;#000000&quot;&gt;Streaming&lt;/font&gt;&lt;br&gt;Cloud Pub/Sub&lt;hr&gt;&lt;span style=&quot;font-size: 11px&quot;&gt;Field Data from&amp;nbsp;&lt;/span&gt;the vehicles" style="dashed=0;connectable=0;html=1;fillColor=#5184F3;strokeColor=none;shape=mxgraph.gcp2.hexIcon;prIcon=cloud_pubsub;part=1;labelPosition=right;verticalLabelPosition=middle;align=left;verticalAlign=top;spacingLeft=5;fontColor=#999999;fontSize=12;spacingTop=-8;" parent="361" vertex="1">
          <mxGeometry width="44" height="39" relative="1" as="geometry">
            <mxPoint x="5" y="7" as="offset" />
          </mxGeometry>
        </mxCell>
        <mxCell id="400" style="edgeStyle=orthogonalEdgeStyle;rounded=0;html=1;exitX=0.5;exitY=1;dashed=0;labelBackgroundColor=none;startArrow=none;startFill=0;startSize=4;endArrow=blockThin;endFill=1;endSize=4;strokeColor=#4284F3;strokeWidth=2;fontSize=12;" parent="1" source="363" edge="1">
          <mxGeometry relative="1" as="geometry">
            <mxPoint x="514.5" y="335" as="targetPoint" />
          </mxGeometry>
        </mxCell>
        <mxCell id="363" value="" style="strokeColor=#dddddd;fillColor=#ffffff;shadow=1;strokeWidth=1;rounded=1;absoluteArcSize=1;arcSize=2;fontSize=12;fontColor=#9E9E9E;align=center;html=1;" parent="1" vertex="1">
          <mxGeometry x="400" y="430" width="168" height="70" as="geometry" />
        </mxCell>
        <mxCell id="364" value="&lt;font color=&quot;#000000&quot;&gt;Processing&lt;/font&gt;&lt;br&gt;Cloud Dataflow&lt;hr&gt;&lt;font style=&quot;font-size: 11px&quot;&gt;Field Data Processing&lt;/font&gt;" style="dashed=0;connectable=0;html=1;fillColor=#5184F3;strokeColor=none;shape=mxgraph.gcp2.hexIcon;prIcon=cloud_dataflow;part=1;labelPosition=right;verticalLabelPosition=middle;align=left;verticalAlign=top;spacingLeft=5;fontColor=#999999;fontSize=12;spacingTop=-8;" parent="363" vertex="1">
          <mxGeometry width="44" height="39" relative="1" as="geometry">
            <mxPoint x="5" y="7" as="offset" />
          </mxGeometry>
        </mxCell>
        <mxCell id="408" style="edgeStyle=orthogonalEdgeStyle;rounded=0;html=1;dashed=0;labelBackgroundColor=none;startArrow=none;startFill=0;startSize=4;endArrow=blockThin;endFill=1;endSize=4;strokeColor=#4284F3;strokeWidth=2;fontSize=12;" parent="1" target="388" edge="1">
          <mxGeometry relative="1" as="geometry">
            <Array as="points">
              <mxPoint x="888.5" y="145" />
              <mxPoint x="888.5" y="145" />
            </Array>
            <mxPoint x="838.5" y="145" as="sourcePoint" />
          </mxGeometry>
        </mxCell>
        <mxCell id="409" style="edgeStyle=orthogonalEdgeStyle;rounded=0;html=1;dashed=0;labelBackgroundColor=none;startArrow=none;startFill=0;startSize=4;endArrow=blockThin;endFill=1;endSize=4;strokeColor=#4284F3;strokeWidth=2;fontSize=12;" parent="1" target="376" edge="1">
          <mxGeometry relative="1" as="geometry">
            <mxPoint x="759.5" y="200" as="sourcePoint" />
          </mxGeometry>
        </mxCell>
        <mxCell id="411" style="edgeStyle=orthogonalEdgeStyle;rounded=0;html=1;dashed=0;labelBackgroundColor=none;startArrow=none;startFill=0;startSize=4;endArrow=blockThin;endFill=1;endSize=4;strokeColor=#4284F3;strokeWidth=2;fontSize=12;" parent="1" source="384" target="391" edge="1">
          <mxGeometry relative="1" as="geometry" />
        </mxCell>
        <mxCell id="412" style="edgeStyle=orthogonalEdgeStyle;rounded=0;html=1;dashed=0;labelBackgroundColor=none;startArrow=none;startFill=0;startSize=4;endArrow=blockThin;endFill=1;endSize=4;strokeColor=#4284F3;strokeWidth=2;fontSize=12;" parent="1" source="384" target="386" edge="1">
          <mxGeometry relative="1" as="geometry">
            <Array as="points">
              <mxPoint x="759.5" y="505" />
              <mxPoint x="759.5" y="505" />
            </Array>
          </mxGeometry>
        </mxCell>
        <mxCell id="384" value="" style="strokeColor=#dddddd;fillColor=#ffffff;shadow=1;strokeWidth=1;rounded=1;absoluteArcSize=1;arcSize=2;fontSize=12;fontColor=#9E9E9E;align=center;html=1;" parent="1" vertex="1">
          <mxGeometry x="650" y="344" width="157" height="70" as="geometry" />
        </mxCell>
        <mxCell id="385" value="&lt;font color=&quot;#000000&quot;&gt;Data Warehouse&lt;/font&gt;&lt;br&gt;BigQuery&lt;hr&gt;&lt;font style=&quot;font-size: 11px&quot;&gt;Execution Results&lt;/font&gt;" style="dashed=0;connectable=0;html=1;fillColor=#5184F3;strokeColor=none;shape=mxgraph.gcp2.hexIcon;prIcon=bigquery;part=1;labelPosition=right;verticalLabelPosition=middle;align=left;verticalAlign=top;spacingLeft=5;fontColor=#999999;fontSize=12;spacingTop=-8;" parent="384" vertex="1">
          <mxGeometry width="44" height="39" relative="1" as="geometry">
            <mxPoint x="5" y="7" as="offset" />
          </mxGeometry>
        </mxCell>
        <mxCell id="386" value="" style="strokeColor=#dddddd;fillColor=#ffffff;shadow=1;strokeWidth=1;rounded=1;absoluteArcSize=1;arcSize=2;fontSize=12;fontColor=#9E9E9E;align=center;html=1;" parent="1" vertex="1">
          <mxGeometry x="680.5" y="515" width="158" height="60" as="geometry" />
        </mxCell>
        <mxCell id="387" value="&lt;font color=&quot;#000000&quot;&gt;Data Analysis&lt;/font&gt;&lt;br&gt;Cloud Datalab" style="dashed=0;connectable=0;html=1;fillColor=#5184F3;strokeColor=none;shape=mxgraph.gcp2.hexIcon;prIcon=cloud_datalab;part=1;labelPosition=right;verticalLabelPosition=middle;align=left;verticalAlign=middle;spacingLeft=5;fontColor=#999999;fontSize=12;" parent="386" vertex="1">
          <mxGeometry y="0.5" width="44" height="39" relative="1" as="geometry">
            <mxPoint x="5" y="-19.5" as="offset" />
          </mxGeometry>
        </mxCell>
        <mxCell id="388" value="Mobile Devices&lt;br&gt;&lt;font style=&quot;font-size: 10px&quot;&gt;Push Notification&lt;/font&gt;&lt;br&gt;" style="rounded=1;absoluteArcSize=1;arcSize=2;html=1;strokeColor=none;gradientColor=none;shadow=0;dashed=0;fontSize=12;fontColor=#9E9E9E;align=left;verticalAlign=top;spacing=10;spacingTop=-4;fillColor=#F1F8E9;" parent="1" vertex="1">
          <mxGeometry x="898.5" y="95" width="110" height="130" as="geometry" />
        </mxCell>
        <mxCell id="389" value="" style="strokeColor=#dddddd;fillColor=#ffffff;shadow=1;strokeWidth=1;rounded=1;absoluteArcSize=1;arcSize=2;labelPosition=center;verticalLabelPosition=middle;align=center;verticalAlign=bottom;spacingLeft=0;fontColor=#999999;fontSize=12;whiteSpace=wrap;spacingBottom=2;html=1;" parent="1" vertex="1">
          <mxGeometry x="918.5" y="140" width="70" height="70" as="geometry" />
        </mxCell>
        <mxCell id="390" value="" style="dashed=0;connectable=0;html=1;fillColor=#757575;strokeColor=none;shape=mxgraph.gcp2.mobile_devices;part=1;" parent="389" vertex="1">
          <mxGeometry x="0.5" width="50" height="36.5" relative="1" as="geometry">
            <mxPoint x="-25" y="16.75" as="offset" />
          </mxGeometry>
        </mxCell>
        <mxCell id="391" value="Report &amp;amp; Share&lt;br&gt;&lt;font style=&quot;font-size: 10px&quot;&gt;Business Analysis&lt;/font&gt;&lt;br&gt;" style="rounded=1;absoluteArcSize=1;arcSize=2;html=1;strokeColor=none;gradientColor=none;shadow=0;dashed=0;fontSize=12;fontColor=#9E9E9E;align=left;verticalAlign=top;spacing=10;spacingTop=-4;fillColor=#F3E5F5;" parent="1" vertex="1">
          <mxGeometry x="898.5" y="376" width="170" height="128" as="geometry" />
        </mxCell>
        <mxCell id="392" value="" style="strokeColor=#dddddd;fillColor=#ffffff;shadow=1;strokeWidth=1;rounded=1;absoluteArcSize=1;arcSize=2;labelPosition=center;verticalLabelPosition=middle;align=center;verticalAlign=bottom;spacingLeft=0;fontColor=#999999;fontSize=12;whiteSpace=wrap;spacingBottom=2;html=1;" parent="1" vertex="1">
          <mxGeometry x="908.5" y="423" width="70" height="70" as="geometry" />
        </mxCell>
        <mxCell id="393" value="" style="dashed=0;connectable=0;html=1;fillColor=#757575;strokeColor=none;shape=mxgraph.gcp2.report;part=1;" parent="392" vertex="1">
          <mxGeometry x="0.5" width="50" height="50" relative="1" as="geometry">
            <mxPoint x="-25" y="10" as="offset" />
          </mxGeometry>
        </mxCell>
        <mxCell id="394" value="" style="strokeColor=#dddddd;fillColor=#ffffff;shadow=1;strokeWidth=1;rounded=1;absoluteArcSize=1;arcSize=2;labelPosition=center;verticalLabelPosition=middle;align=center;verticalAlign=bottom;spacingLeft=0;fontColor=#999999;fontSize=12;whiteSpace=wrap;spacingBottom=2;html=1;" parent="1" vertex="1">
          <mxGeometry x="988.5" y="423" width="70" height="70" as="geometry" />
        </mxCell>
        <mxCell id="395" value="" style="dashed=0;connectable=0;html=1;fillColor=#757575;strokeColor=none;shape=mxgraph.gcp2.users;part=1;" parent="394" vertex="1">
          <mxGeometry x="0.5" width="50" height="31.5" relative="1" as="geometry">
            <mxPoint x="-25" y="19.25" as="offset" />
          </mxGeometry>
        </mxCell>
        <mxCell id="xwxbCeUritOEieoB_8Dk-412" value="" style="shape=image;imageAspect=0;aspect=fixed;verticalLabelPosition=bottom;verticalAlign=top;image=data:image/png,iVBORw0KGgoAAAANSUhEUgAAAGcAAAB1CAYAAABTX/9pAAAYVGlDQ1BJQ0MgUHJvZmlsZQAAWIWVeQVUVF8X77mTzDAM3d0l3SAxdHeDwABDd4dKioSKIKCUCioIIliEiIUgooigAgYiYVAqqKAIyLuEfv/v/6313npnrXPvb/bZZ8fZp/ZcADhTyRERIQg6AELDYqJsjXT5nF1c+bDvAAQQgBEwAwLZJzqCZG1tDuDy5/3fZXkY5obLM6lNWf/b/n8t9L6UaB8AIGsYe/tG+4TC+BoAqEyfiKgYADCqMF0wPiZiE7vDmCkKNhDGEZvYfxtnbmLvbXxii8feVg/GDQBQEcjkKH8AiG0wnS/Oxx+WQ3wBtzGE+QaGwazzMNbyCSD7AsC5C+bZFRoavomdYSzm/Q85/v8l0/uvTDLZ/y/e9mWrUOkHRkeEkBP/P4fj/11CQ2L/6BCBKyEgyth202d43F4Eh5ttYgKM58O8La1gzADjn4G+W/wwRuADYo0dtvkRXD7RevCYARYYy/qS9c1gzAVjw7AQS/MdurdfoKEJjOEZgkgIjDGx3+mbTYk2sNuRWREVbmv1B/tF6ZF2+jaSo7b0bvJ3xQY7kHbkvwigmPyR/z0pwN5p22YkPi7Q0RLGRBizRAfbmW3zIIWSAvQs//BExdpu2i8EY3VKmJHutnykh1+Uoe0Of1Ro9B9/kdkBgSaWO7gsJsDeeEdOgw95y342GLdRwkgOf+RQop3N//jiS9E32PYdOUAJc9jxFzkeEaNru9P3a0SI9Q4/Ck8JMdqkC8CYKzrObqcvSisGnpDb8lGWETHW9tt2oryDyKbW2/agEoA50AP6gA/EwtUbhIMgENg/3zoP/9puMQRkEAX8AQVI7VD+9HDaagmDn3YgCXyCEQVE/+2nu9VKAXEwff0vdfspBfy2WuO2egSDDzAOBWYgBP4du9Ur7K82R/AOpgT+j3Yf2NYQuG62/S+NBFPMdyixf+Ty0f7hxBhg9DHGGEOMOIoDpYXSQJnDTx24yqNUUWp/rP0PP/oDehA9iR5Cj6NfegamR/3LHz5gAcZhDYY7Pnv/02eUCCxVCaWL0oTlw7JRLCgOIIVShDWRUNqwbiWYqrdj+ab3/5b9Xz78Y9R3+HCyOASOFaeDE/t3T6IEUemvlM0x/ecIbdvq/Xdc9f62/Fu/3j9G2hd+m/2bE5mNvIrsQd5F9iI7kK2AD3kb2YbsQ97cxH9n0butWfRHm+2WPcGwnMD/0Ufe0bk5ktGyF2RnZNe222IoCTGbC0wvPCIxKtA/IIaPBO/8FD6TMB/pXXzysvKyAGyeI9vb1DfbrfMBYnnyHxplGoDd8NrADfyHFnQMgPpuAFhz/0MTcQOAHd6XLz/1iY2K26ahNh9ogAe08IpiBzxAEIjB/sgDZaABdIABMAVWwB64AA94lAPg+RwF4sFekAayQB44CopBGTgFzoDz4CK4AlpBB7gL7oNHYAAMgdfw7HkP5sACWAarEARhIRqIEWKHeCFhSBKSh1QhLcgAModsIRfIC/KHwqBYaC+UAeVBhVAZVAXVQZeh69BdqBcahF5CE9AM9BX6hUAiCAgmBDdCBCGDUEWQEGYIe8QehD8iEpGEyEQcQZxAVCMaEC2Iu4hHiCHEOGIOsYQESGokC5IfKYVUReohrZCuSD9kFHI/MhdZgqxGNiLb4Tg/Q44j55ErKAyKEcWHkoJnsDHKAeWDikTtRx1ClaHOo1pQXahnqAnUAuo3mgbNhZZEq6NN0M5of3Q8Ogtdgq5BN6O74dX0Hr2MwWBYMKIYFXg1umCCMMmYQ5hKTBPmDmYQM4VZwmKx7FhJrCbWCkvGxmCzsKXYBuxt7FPse+xPKmoqXip5KkMqV6owqnSqEqp6qltUT6k+Uq3i6HDCOHWcFc4Xl4jLx53FteOe4N7jVvH0eFG8Jt4eH4RPw5/AN+K78aP4b9TU1ALUatQ21IHUqdQnqC9RP6CeoF4hMBAkCHoEd0Is4QihlnCH8JLwjYaGRoRGh8aVJobmCE0dzT2aMZqfREaiNNGE6EtMIZYTW4hPiZ9pcbTCtCRaD9ok2hLaq7RPaOfpcHQidHp0ZLr9dOV01+lG6JboGenl6K3oQ+kP0dfT99JPM2AZRBgMGHwZMhnOMNxjmGJEMgoy6jH6MGYwnmXsZnzPhGESZTJhCmLKY7rI1M+0wMzArMjsyJzAXM58k3mcBckiwmLCEsKSz3KFZZjlFys3K4mVwprD2sj6lPUHGyebDhuFLZetiW2I7Rc7H7sBezB7AXsr+xsOFIcEhw1HPMdJjm6OeU4mTg1OH85cziucr7gQXBJctlzJXGe4+riWuHm4jbgjuEu573HP87Dw6PAE8RTx3OKZ4WXk1eIN5C3ivc07y8fMR+IL4TvB18W3wM/Fb8wfy1/F38+/KiAq4CCQLtAk8EYQL6gq6CdYJNgpuCDEK2QhtFfogtArYZywqnCA8HHhHuEfIqIiTiIHRVpFpkXZRE1Ek0QviI6K0Yhpi0WKVYs9F8eIq4oHi1eKD0ggJJQkAiTKJZ5IIiSVJQMlKyUHd6F3qe0K21W9a0SKIEWSipO6IDUhzSJtLp0u3Sr9WUZIxlWmQKZH5reskmyI7FnZ13IMcqZy6XLtcl/lJeR95MvlnyvQKBgqpCi0KSwqSipSFE8qvlBiVLJQOqjUqbSurKIcpdyoPKMipOKlUqEyosqkaq16SPWBGlpNVy1FrUNtRV1ZPUb9ivoXDSmNYI16jendorspu8/untIU0CRrVmmOa/FpeWmd1hrX5tcma1drT+oI6vjq1Oh8JImTgkgNpM+6srpRus26P/TU9fbp3dFH6hvp5+r3GzAYOBiUGYwZChj6G14wXDBSMko2umOMNjYzLjAeMeE28TGpM1kwVTHdZ9plRjCzMyszmzSXMI8yb7dAWJhaHLMYtRS2DLNstQJWJlbHrN5Yi1pHWt+wwdhY25TbfLCVs91r22PHaOdpV2+3bK9rn2//2kHMIdah05HW0d2xzvGHk75TodO4s4zzPudHLhwugS5trlhXR9ca1yU3A7dit/fuSu5Z7sN7RPck7On14PAI8bjpSetJ9rzqhfZy8qr3WiNbkavJS94m3hXeCz56Psd95nx1fIt8ZyialELKRz9Nv0K/aX9N/2P+MwHaASUB84F6gWWBi0HGQaeCfgRbBdcGb4Q4hTSFUoV6hV4PYwgLDusK5wlPCB+MkIzIihiPVI8sjlyIMouqiYai90S3xTDBF/a+WLHYA7ETcVpx5XE/4x3jrybQJ4Ql9CVKJOYkfkwyTDqXjEr2Se7cy783be/EPtK+qv3Qfu/9nSmCKZkp71ONUs+n4dOC0x6ny6YXpn/PcMpoz+TOTM2cOmB04EIWMSsqa+SgxsFT2ajswOz+HIWc0pzfub65D/Nk80ry1g75HHp4WO7wicMbR/yO9Ocr5588ijkadnS4QLvgfCF9YVLh1DGLYy1FfEW5Rd+LPYt7SxRLTh3HH489Pn7C/ERbqVDp0dK1soCyoXLd8qYKroqcih+VvpVPT+qcbDzFfSrv1K/TgadfVBlVtVSLVJecwZyJO/PhrOPZnnOq5+pqOGryatZrw2rHz9ue76pTqaur56rPv4C4EHthpsG9YeCi/sW2RqnGqiaWprxL4FLspdnLXpeHr5hd6byqerXxmvC1imbG5twWqCWxZaE1oHW8zaVt8Lrp9c52jfbmG9I3ajv4O8pvMt/Mv4W/lXlr43bS7aU7EXfm7/rfner07Hx9z/ne8y6brv5us+4H9w3v3+sh9dx+oPmgo1e99/pD1Yetj5QftfQp9TU/Vnrc3K/c3/JE5UnbgNpA++DuwVtPtZ/efab/7P5zk+ePhiyHBocdhl+MuI+Mv/B9Mf0y5OXiq7hXq69TR9GjuW/o3pSMcY1VvxV/2zSuPH5zQn+ib9Ju8vWUz9Tcu+h3a+8zP9B8KPnI+7FuWn66Y8ZwZmDWbfb9XMTc6nzWJ/pPFZ/FPl/7ovOlb8F54f1i1OLG10Pf2L/Vflf83rlkvTS2HLq8+iP3J/vP8yuqKz2/nH59XI1fw66dWBdfb/9t9nt0I3RjI4IcRd66CiDhivDzA+BrLQA0LgAwDgCAd9vO83YKEr58IOC3I2SAICFVUWxoPIYKK0vlgsvA3yZgaMjEVjo8fQjDQyYl5gpWwBbM3s+pzHWUe45Xhy+ff1AQL6Qm7CISLBoq5i6uK8EtsSh5f1epVLC0pgyNzFvZJrlUeRsFfoVPiteVDijbqHCpvFdtVEtQJ2ngNZ7trtD01dql9VW7VWcvSVeXoPtW75Z+vUGlYYHRfmOyibYpm+miWZ95o0WlZZVVh/WULdqO3Z7Dgc4R6bjmtOoCXHFuRHeaPag9Sx6TngNed8hXvWt8Sn1zKYl+/v72AbqBikESwfwh7KG0Yciw7+GTEQORN6LORh+JSYnNimtOQCVSku7sBftE9qunmKS6pcWmH8kozkw+oHhgKiv/oHW2cA51LshDHKI/LHZEK9/yqFOBa6HrMecix2L7EpvjlifMSo3KdMu1KtQqFU5KnZI4LVtlVp1xZvycSU1D7Vwdfb3wBbkGjYv6jRZNTpc8Lwdcibgaf21/c3rLgdbstrzr+e3FNyo6am5eu9V9e+TO+N3hzqZ7fl1sXQ+6S+7H9/g92NPr9NDmkVmf0WPjfvsnkQOnB18+o34uM6Q3bDJi8EL1pfAr4quV19OjL97cHTvzNmPcf8Jh0nLK4p3Ve6sPph/Vplmnx2dyZxVnx+fOzyd9Mv5M9bnui9GXqYUziwlfPb5ZfbdYClru/HnwV+u6/sbGTvzlkCjkDGocPYVZoELilPEB1BWEcaIEbTzdfQZ2xkSm5yzyrOlsbziUOLO4Bng4eJ35Cvg7BEYFl4SWhWdFHoueEYsS15KgkngueWpXkJSS1G/p+zJHZJ3keOU+yjcqxClqKkFK3cq5KlaqjKrDaqXqbhrcGqPwLHDXYtca0T6u40YSIa3qDuld1j9kQDHcbURv9MG4w6TYNM6MYu5tEWAZbhVq7W1jZathJ2HP6UB0RDguO310Hna559roVu6euyfJI9DT2UufLOPN5gP5zPoOUbr8mv1rAkoCM4PCg11CdEJFw2jgmTARMRb5PZo/xjO2NO5u/IuEqcT5pJW91Pt49oul8KViUt+mNafnZ0RlehxwyHI+GJidkVOZezGv+VDL4WtHLudfPFpXcK7w9LHyouLi/JKc4+knEkvDy/zLAytSK2+fEj99vlr0TOHZZ+dWaonnOeoE6yXgeaByUatRv8niksvlkCtZV89cu9U82DLWOt32rR15g7VD8qbGLZ3bKnf47yLuTnb23Gvuqu0uv3+058CDpN6ohzGPcvo6+lme7Bt485TjmfZz+yG/4dSRcy+evPz+mmFU6o35WMTb4+M3Jp5Ojk1Nvpv7gIajnzYzOEc/L/tJ6bPIF9ovPxc+LI58ffjt+veqpZRlxx+iP5Z/dqwk/dJYJazpr8/sxF8amkNUIj1Q4mgsehEzg52lmsQtUuMJwjQkoittGl0D/SDDBpMwswFLEOsBtlPs1zi6OR9w3ee+wVPFm8Cny/eL/6yAmcCcYLaQqFCnsIfwikiRqKzoQzF/cax4rYSxxEfJrF1iu7qlfKSBdKXMbpkXsrHw7aZJ3lx+WiFDkUexTclWaV75gAqvSit8a5lWS1FnUb+gQdJ4uttn92fNZC2sVrm2ovawThKJh9Sma6X7Ui9Ab0O/2sDaEGd4z2ivsaLxrEm1qbsZm9mwebGFnSWtZa9VhrWG9XebJttgO1G7d/ZVDnsc2R2fO+U7GztvuDS7hrgJub1xL9ljuWfZo8hT2POaF8nrFTnBW8D7BbyPBFCM/FT81QJMAslBocHkEO1QutDRsHPhoRFKEWuR96Jyo61jmGNex56K840Xif+QcDLRIHE0KSSZKfnZ3hv7bu3vSrmXej2tLr0kIyMz/IBblsFBiWx09vOc0lzXPKG81UPjhx8fuZ5/+uj+ArdC9WMcx1aKhouvlBw/fvhEYWlV2dXy+xUvKmdPrp6mqeKrVjhjfNb9XHjN/tqc84fqUuvJF1QaiA1fL35qXLlEuMxzRf6q9bXk5mstP9vUrke0l9641NF288at3ttLd406r3fZdS/1lPQqPHzed7jfa8DkKem57nDIS+Lo3GT/7NL3lc34b//ft1kwygAcS4Mz1CwAHLQBKOiC88whOO/EA2BNA4C9GkCI+AEEoQ9A6hN/zw8IPm0wgBrQAzbAC0SBLFCHs2Qr4Ar8QDScXeaDk6AR3AJPwAT4DmeOXJAcZAR5QvFQAdQAPYA+IDAIMYQ5IhpRCed5G3BeF4e8jvyNMkIdQ02iFdDZ6LcYdUwpZhXOsB5SqVDV4jhxBXhqfA41nvoogYNQS6NI00HUJLbTqtLeoDOme00fw0DHcJFRn3GQyZ5pkNmK+SmLJ8tP1lI2TbYx9n0cnBztnB5cOK4O7jgeRZ5vvFf4oviV+NcEegRLhAKEd4sQRcZFr4pli3tLkCRFdhF3rUp9ln4nMyTbLJcsLyc/ppCtqKT4RalNuVAlUdVXzVxdVoN1N1FTWqtcR5J0WLdX74sBlSGzEbsxl4mQqaKZpXmkxQnLLquvNoK2TnZH7HscUU76zlkufW4s7t576j3eeWHI9N4Y7yWf976jlFl/2gCzwOKgjyG7Q4vCPkeYRtZHE2IiY1/FGya0JUkl1+zj21+eypJWkIHPTDuwdDAoey4371DokeYC+mMcRZ9K6k54lrGUD1QePmV0eqk6/yzTueya5fPBdV8vHL1o0ER/afHKh2vTLXNtH9unOhZvs97Vu+fR7dVj16v9SOax+BPlwbBnP0dQr3Cjp94yTtx6T5zeO0f61PRl9avyd8Nl/I/DPx+uTP96v/py7dr60d/eG7Jb+8dm/LGAABgAO+AHEkABaAJjYA+8QChIBjmgFNSB6+AReAMWIDTEAcluRT8RKoIuQf3QJwQtQgHhishAXEG8R/IiPZFnkfMoZVQmaggtjk5Dj8KxL8cCbAB2iMqAqg0ng6vHi+MbqBWpbxOsCVM0CUQcsZiWn/YSnL++po9nYGFoZXRk/MS0jxnPfIJFiuUhazgbK9sd9kAOJo47nOFcQlyj3KU8zrxsvC/5Kvl9BWQFgeBzoQvCmSLuoopwLjcr3idxFT7F8qUypPfKxMj6yOnIE+T7FXIVzZRYlRaVX6r0qLaoVasf0kjaHaeZo9Wm/YOkoOurl6dfY9BieMPohvFNk17TCXOEhYSlo9UB61abeTshe0+HSscxZwGXINcWd+weJ48yz26vQXKnd51Ptm8gxdbP2N8lID3wTjBNiHdoRzhHRFLkm2jdmLo42viIhEdJ/Mlxewf2K6WcTeNML8rEH0jOms8m50zmJR2WzUccfVN4uSiuRPH419LL5bGV6id/na6plj9TefZjjWhtwPlL9awXKi5qNn66VHpF7Wp/M7llta263aYD3Ky7bX5nsfNUl/d99Qf8D1GPHj+Oe4IZyH1KeFY95Dli8TLkde2bj+O8k9bv0j7cmmGdO/pZZOHxt6LlQysmq/JrJ9ff/V7ciT8K4AAdvPr5gSRQBnrAGnjAsd8Hr/wqcA08AGPwuidAIpAOtAdKhsqhm9AEAgdHnYwoRgwgmZEU5E0UFyoVNYt2QT/G6GFuYjWxd6nMqd7govG0+EvUjgQkoZUmkihH/EnbTVdKH8vgwmjCZMpsw2LKqsImzq7E4cmZyBXD7c1jz2vJZ8FvIWAuaCFkK+wpEi16WKxe/IHEzC4aKRVpP5ky2WF5DgVfxSalVRVr1cfqObtdtNDaR3XWdM30MuAIthp2GN0y7jdZNTMzb7GUtmqwkbZtsddzGHYKdcG7Nrg7etB7UXt7+rpR3vlrBOQFfgi2DekLswh/GukWNR2THMcTP5Z4P/nOvsoUh9Rf6VWZjlm8BxdybuYdOuyXb1TAXvioyK94+XhGKX1ZdYVy5eNTflVQdcVZ1XNDtbF1nPUPGlIajS7JXDG8ltJS3Zbf7tLBenPkdvldl3vYrnP3FXtu9Bo8HOlL6JcZQA4uPJseGhwpeCn6qvL17zcGY7lvH03QTjpMnX4380HuY/D06ZkHs7Pz6E9cn2W/6C84LZK/+n6z/i7wfWnp8DLXcv0PtR9lP1Z+Ov1sWWFZiVppWVn9pfMr81fvKnHVbvX46sAa1ZrOWsLa5bWZdf51l/XC9Yfr67/lfvv+Pv770e/fG3IblI0TG32b8Y/2U5DfOj4ggi4A6LGNjW8iAGALAVgv2NhYrd7YWD8DJxujANwJ2f6GtHXW0AFQsbCJHrX9Sv33t5z/A3xU2cXAb6+/AAABnWlUWHRYTUw6Y29tLmFkb2JlLnhtcAAAAAAAPHg6eG1wbWV0YSB4bWxuczp4PSJhZG9iZTpuczptZXRhLyIgeDp4bXB0az0iWE1QIENvcmUgNS40LjAiPgogICA8cmRmOlJERiB4bWxuczpyZGY9Imh0dHA6Ly93d3cudzMub3JnLzE5OTkvMDIvMjItcmRmLXN5bnRheC1ucyMiPgogICAgICA8cmRmOkRlc2NyaXB0aW9uIHJkZjphYm91dD0iIgogICAgICAgICAgICB4bWxuczpleGlmPSJodHRwOi8vbnMuYWRvYmUuY29tL2V4aWYvMS4wLyI+CiAgICAgICAgIDxleGlmOlBpeGVsWERpbWVuc2lvbj4xMDM8L2V4aWY6UGl4ZWxYRGltZW5zaW9uPgogICAgICAgICA8ZXhpZjpQaXhlbFlEaW1lbnNpb24+MTE3PC9leGlmOlBpeGVsWURpbWVuc2lvbj4KICAgICAgPC9yZGY6RGVzY3JpcHRpb24+CiAgIDwvcmRmOlJERj4KPC94OnhtcG1ldGE+Cl8rrJUAABwXSURBVHgB7d1lrCTFFgfwWtzddXF398XdXRa3BAJf+MQHeHxBQkJYJEHDsuji7rLY4u6+uLtrv/5VXi2deXfsTs9sL5lK5s5MT3d19fmf8z9S1X2HZHkL/VZJCUxSyVH1BxUl0AenworQB6cPToUlUOGh9S2nwuBMVuGxxaEJJn///ffw22+/hckmmyxMNdVUYZJJ2tepv/76K/z666/Buz4mn3zyMGTIkEpffqXB+fvvv8P3338fXnrppfDaa6+FBRZYIKy22mph5plnbluoX3/9dRg7dmz48ssvwworrBCWXHLJMO2001YaoMqCAxgCfeihh8JVV10V3n777bDhhhuGRRZZJMw000xtCZX1ffbZZ+G2224LTz/9dFh++eXDHnvsEdZYY40wwwwztNVX21rRwQGVBIcwv/322/DAAw+EUaNGhWeffTYsuOCCEZjpppsuUhNKQm+NqEk/QPY+44wzhkUXXTQ89dRT4d577w2//PJLFNtaa60V9Nmonw7k29GhlQSH4Ahx9OjR4fnnnw+LLbZY2HPPPcOwYcOi/3n11VfD9NNPH+aaa67oP+pJQD+ffPJJBGKWWWYJ2267bfQ1V155ZXjsscfisfpZeeWVw5RTTlmvmwm2fdL/5G2CnX2AE3PY/MsVV1wRKY2fGT58eNh4443Djz/+GK6//voI2ldffRUWWmihaBEDaT1reffdd8PIkSPDjTfeGH766adoOYsvvngE5a233gpegozBUOUAQy99U+Ush9D5mYcffjhax3bbbRc22GCDSHN8zy233BKth0BRVqMG6G+++SY8+eSTEQjg7rjjjmGzzTaL2ynAfffdF5Zeeukw66yzRl/WqL9e/1Ypy/nzzz8jjQHh/fffjzS2yy67hEknnTRqP6sRUm+++eZhhx12CPPPP3/4448/guPswwf5zEqEzVNPPXW0LKCgwnHjxkX/sswyy4Q555wzfPjhh+H111+PPglAs80226DC9G6BVinLEQQ899xzkdbmmWeeGJ3xFSzp9ttvj8BsvfXWMdKab775wssvvxxffM/aa68dhfvpp59Gq/vhhx9iyLzccstFfwI4VsLy0KFwGlUC7YUXXggvvvhiDNUFDlVplQGHj/j444+joCSdyy67bFhqqaXCF198Ee6///4YCq+++uqRluadd97o0AUMb7zxRgRG0CD/+eijj8Ktt94aQQOAkFnovPPOOwfAsRT92T/lO8JrEaHIrUrgtJ9qd0mt0BHBvvnmm2GaaaaJ4KAlwYGIjeBp+tChQ6PgL7/88vD4449HmpJQ+h21zT777BFUn4XiIjN0BmjHTzHFFDHXkTfJl1gWq3Kezz//PIbpXbrEtrutDDg///xztByWQnuBwG+gHRQlR2EB/Ic8BQ0JCg488MCw5ZZbxhBZMCE05vT33Xff6FeE5GPGjIl+Rcgs+lMleOWVV+I2fSjnsCphN59WlVYZcDhxmsvBi5xYgG20Xri78MILR9B8F33JSwQG6623XsxjrrnmmjBixIhw8803R0tgJRtttFEUNgsjfA5fP6I4YbZzCQxYkJxIFYFCVKVVxucQijqaRvvVvViREg4qIkShsyiOEAUBK620UtR+wYIIj88ifEIHHEu58847I12KzPgxx2msx36qA84HvO+++y6G6XGHCvypjOXQZoGAhBIY/ADhoRmfUY99UBz/RKj8DOtCUXwIWuKzUKFj/c5/6TcBz485h371xyqdT7OtWe7US8wqAw4AOHFRG6F5953wfAaIfdCZd4JERb6zKkCwNpTou2P9DhifgasBTdOvfoDhfGnbQNWG+OME+FMZWiNk1qBx+miOQAUHLIKzJ1BhNB+BloTR8p0tttgiAvjee++FJZZYIvoagAqbWYxj5p577ti34/ymD3M6civWByj0ZltVWmXAQT8pQ1dy4Wt8J1iRGcEDTBTHdwiT77777vi7jP+QQw6JlsJ6CFjQIKpjFfIZ/QBiXB5QsA7VBfsBy3bUJgihJFVplaE1QlUVoNHA+eCDDyJNyWEIjpV4EaB5HcIGwEUXXRSeeOKJSGdyFv1IMkfmBU++SLJpf+DzRaI0FiLvQXdAZ6nokHUl+qsCQJUBBwAEzjIIS1JI6wmRgEVTrAVwJsl22mmnuL9yT6og8EtAveeee+LxjlObkx9JcMfk+Q6aU0dTnZZbKQE5jzyKr0KdVWmVGQmqYTm0n8DVu2g1oa2//vqxqqzGJok0LyPxVHdTdlErYzH8Bh8FDH0BcZVVVokhsllQFsbyhg0bFi1FgmoKnLWgPtbTDwjqqCYfI3dhIejHtIEZ0HXWWSeGyHfccUeQbHLoW221Vdhkk03CmmuuGavPjkVTfIl6GisCGIsxn3PTTTfF4ySmanT8DEtikYBZccUVI7B1hjZBNldqyoBwOWnBgCCAs+YH+J055pgjbuc33nnnnajt6IklWQfgWM3xrIfvkqyqrZlqEFZvuummYdddd42/qVDfcMMN8TjlHpUG/VSpVYbWCAWlAMPkGmeOdghQDoPu1Ms4dsCpHjQrtQAEwIRugo2fQnfKOayJ/2JJgEGRVWuVAodwhLJ8Br8CgGeeeWZ8BAUgITOnz5L4j0Y+AtC77757zIOUdURp/M5ll10WAwYh+fbbbx8DDhZXtTYk5+/K3QIia+crWI2pAX7BerW99toranly/gTaCBz98D3e1c1EcYARBAg09ttvvxhYNAN5QoFWOcshCFEXrTfrSXeuvfbaSHPoiFWhoEagJGHqR4iuD/Qm2uOvhOcsSkBRtQgtjd17JcGJA8vzDc7eWgECpO0CAz5nMA2lJWBZoVlPFpMCicH02e1jKklrxYtOlCT0VVEG1GD8g0Ip61EI1Yc6Hsuqcqs8OFUWXrfHVm3V6fbVV7z/PjgVBqgPTh+cCkugwkPrW04fnApLoMJD61tOhcHpSYWgW+W7Vko4FZZ906F1DRwZuZK8lS2WI5UNUKqbmbdRmqnS9HJTqbe4Q1fAsQZAkfK6666L080A6gY4yjCW3ZpesOa5SitnWpR/w91KB4eVWAJ7yimnxLsD1Ma6RT/6dm+n6YXDDz88Ltr4N1lQ6eBYFzYyX5ZkgQa6sZpGkbFsgABj0s2Cw6uvvjpYu2YdtFnTss/VUL27+GPp4JhCBpDqr2nhI488Mi66KFtgwDEZd/rpp8f1aCzIQhBT0v8W6yk9lBYEmLvnsM02WotGm1kRn0Bwnb7SMl1g8DX6s87NjCnQ/i2tdMspOv702bulTu5QMy/j+2AsKfVnkYYlVNYRJNo0w+n2EIs+mk1ftwqe8yWwKdtgxtzquQbar3RwBjqJsPqCCy6IT+OwIL3TZgr7hBNOGL84w7Q1KmU9llV14uOAYSWoiFOU6ZYTK0LTghLW3yuQegIObXb/jJlI2ojizO2320SChMVCWKGVoO4qsIyWZVrThtpQabuznMYFEEGGJVlW6VibbQWQRSJC9v333z8u5R3M2Nu9Vvv3BBwXTtu8zNtb2MdXtKOB9gWK9WaevJGAsOQJGARGAYBDmO1MZbMWILhDziJEy7ES/SZaY0XWHvCj/ypwilqDgiSN6667btvaTYBuH/TiYwBh0QeBidLcdmh9NUEKGloBn+IIx4X/l156abRAiz4EMX5jqWhZa6W/4rV2+rn0aK2VAaEcmt3ui9WhMSUbQLAUVAcca6WB4oYpfi1pfLPxoDL3k1rPhhqBbNnuYYcdFm8dAZLx8mMAb5cum52/0e8TBJxGA2r0GzDd1qFsw4/xCQIAt3PwOwSXQmpOvFljGfyLOxAEFEA/4IADwnHHHRcT2tS/8woIOgk0mo1loN8nKnBcAMtRCQAEv4OShuZVCGvcaDYhsypJcLMG4AcffHD882/cueAOBaC554dlWo6Fgq02VYXolb8x9okOHIGE+3EsLgSEuhoBsigU5M4C/oivaEZtfBeAJc4szwJ6faNGFMfXWOR+7LHHht122y2uQu3lIsSJDhw+IT2CS2ju1nZ+g9/hk/ggdOS3VsBJD6YAipt/CR/gAPPZKlERIQXopb+ZKC1HxJTu1+FXgCMAAA66I1Caj+6a+R2L25Wa0JiAQv7lmFSCYp2ssdXIrxmNtvv7BLGcTkNS1KaEw1Env+OONhruDgT5kGQyCb6eUPglORFwAKA/n9GZ7Wp2fAyL6XTM9cbQaHtPktDiANCO/IS/GCxNoCsarZQCBH25/xPdiar4C4kqy0CD9QQLCC/NPmm/tC2NO21P33v13nNwOOFTTz01CreTiwaAGliiNlQkKACOKIvf4U9Y2GCVoFcg1DtPT8DhBzhUFCF8dTtHUVPrDa7RdtbjpR+lFhQ2NA+pUykn+R13w6GribH1BByOVeFQwijUraWNTgTHx6A0Dt2Nuun2QgEBuhPJ9bKS3Mm11B7bE3A4VsVON8eiojIbwavXUQD0lSI5lQLUJpLjn1jvxNZ6Ag6hoDV5CFoTDXkJDlK0hJ4IFwWhP9GTl8+NfFMtPfI7EkrgCLMVS+UwgwWn0bm7DXZXwXFhhM8neKwJmiEwkZTqMYctogIS4aEo9JTCYjUzgk05SDOgCMtDJRxPGZxHQql/x7bSasFu5Zhu7dM1cFykEopHpchF3CzrOTM0mdWIsoq+x+ekpYDyQlcA8lhiZRR1NUA18iF+l5DyP/ybx6/wQ4qlqX/C9NlY5DrOraKtJmc7hUnjQ4vyJspVPL4WEFaPWtNaiUb71h5b73vptx2ajj755JOjZSgUukjOmWPWCJZWoywX4zOfJPICGp8k8vJCgbajOtbg6U+e0J6eU1MvCrMq58QTT4yKYUrbsc5XbIQHPBZMiVAhq7OfMN2Y7TM0jwBVHuqdK/XpOtyl7Q5t6xso1mCpNPVZquUQLhBQGVBYiuaC5R+E5MEMQPOZNqMy4NBegNBaghEKC7nlLDScwAiSBbrD2sMd0t3VtVrK2gia39EXEGqbYwBvnD6rxcmVNNu9tHTe+KXOn3T+MfmzdFS5Pcgi3QVe55CWNpcGDsFagusBdGmtAJ6ndZYwCaVN8/oOLFqFClxYujgAJYHxE4AiYBfsWTWiLz7rrLPOio9Y8dhifZuH0VdqgPH0QpYHmCTo9Hvx3TlTS+PwPW0vbkv7DfRuvGjR2oaR+ayqginl66SVQmsuhEafdNJJ8UlPLEj4ah5ECE2AfAGwCMrvLia9Ox5YfvdCfd4Jxn6A57c8+cmTozh61ulJT7QUECwz0Yj++JAUbCRBDyQolqMlRUn76N/5a7en32vfWeiZZ54Z1yE4zj+xMK5OWmmWY6UnCiII3Ov/3Xgak0kwgk5azLmmKApNsTIAoDf78hFpzobA1ca8Vl111RgQeLjDJZdcEpWBsz/ttNNi32iO3wAQ4Zi11GcjYDoRXO2xEmzBBbBVKfjTTltp4HiG87Bhw6LP8XTA9CQmoJj8Mh3s2TMEyvxtBwpLIkAC5XsIlzMVYZn8EgSkdQPoy9Of0JbHR6aVOGeffXY8FkAsNFGcPr263VgZ5eSfXI/okpJ12koBhwA8EZDm+4zSRDfCUA+2s9CcP2IlNAsINIt2J0ECyG8oTNUagJ7hCQCrdbbZZpvxAYDq89FHHx2PRx8s9sILL4y+x+IMYXQvQEnCd12UTlGXn6GonfobfZcCjo5QlwqwxiJQlyc+ebKg5FOTA4jSZPHCYTOPKcSlcXyE56x50UJJqoiN5flPHQcddFD0YyyIIhx88MGRSgDEEV988cWxCqHWJrTtRaNUxitw4ecEAqLFMs5fGjgEQVsBw8TPOOOMcNddd8ViJ59BmzzC3ipNoLAcFlS0HAA5XkgrDHefz5g8PAUUSuR0LVliRUpBgPZYLiD6HwaiOoLB+WgxBQjdBElQQzH4T9cPnKF5btQsL2ppTDnypbVcsFleEcj23nvvLPcbWW4VWU5B2fHHH5/lF5DllpHZJweh4Tlzestyn5TlYXCWU2KWBxZZHhxkeRSX5RefnX/++VlOfZn99Jev1Mxyf5fl2prluU+WLw7M8pJR0/M0HESLP+aKk+UWneVUnuWViSyn1ywPDko5N2dcSiPwPA+JA835NgoqD6GjoHKNj0Js90T6zCsGWc7n2RFHHJHlFhcBz60wy6ksyy0sCiHP8LM8jM/yOlyW02uWP24yKgngutmMLw/vs5wN4vXmvjHLfWyW+81STvtP5taSndXfSQnEqklUpA6Fxo455phIQUJiFNZuQxO4W1XhqKOOijdjieRQHv+ibodWhMweZcyPoRNP1XVnHR+QS6nd07a8v/6dx1Q5nyvvEkmWQmn5KEoBR5Qlg8f7/ALOlRwKhfmb5FeKV51rdQRRaUYWL08QqeXaWNwtfgas3Ie/MScEMAD491+qzo6RWzmfENY2d7qJ+gbq7/9OMMgN/IyARVQqQBFFllFTS8NpX53TkYV3DlmxUXlF9OURjYQ4UEgLFFGZMgxHKpKT83DwLs5LwACAIqicO2ev75znxy+jFZlJPlmPBNWdAuk2Dn3T5G4EBkBnNcJ4ySfrFoSwoLJax+AYJC0W6jJzyaeojAYXhWvAKEgZxi3wyjCqBYBBPQQITJUAqyv1A7CiYFmQaM+9MwRPMMpG6IRggOcl4RV++11/jaYYBitIuQ1aZaXYQSVa9FgWpRlXx+CoQhOQBIzWAEZGX+tjWAyhyeatQ+ajWJncBwC0D7UBTUVaUdN/KJQ7FQGyP6sUNqPERx55JD6dnWCAq1KtSgA8lmwfYXutogwWFIpkWsN/IHFuE4kKuizH+cs6TyngoBC8KwigtSoFKgS1jRafe+65MWDgo+zHOvgKFMY/sAgXnPaVbCrJeE8Zv3craigAWkRxEl4Ccl4WJDu3Xb6lQmE2tQhw7dja+c7S9cu/eqcsfJ3xsNAyW8eWQ6AAQm+iJY6xVhAcPSojKNRG4Iceemic10m+RX1Kcsl35XlMFLj7ZlQT/O+BIl0AwXagsVjg0GDfTUkkDTY2QLPQBG6nwkuBDAp3HvM2xj0QjXd6ro7B4WtovYtHQQPdw8LPiOZEcizGY+8JvFZojnULhihIkCHiUrNiXQBJAkYdaZUNcOyLJikI/k9UiX5sKwJLYLZREhaMplAwSvZuG0Wxj0bRbHduwKTKs6gM7apQCGJqryUe3OGfjsEhGEJwAfKZgUrlKRdw4ajMTOhAF0MAggDzP8BEl6iD8y1Sm2u2X1IEoKNVgmaJqTTkHJSANRtfapw4SuSPbEeFwAaQvhRd07Q66xA9ujbWmWZXKQiFAZLjkuKkc5Tx/s+IB9kbbaJl+JYADbTYCIwQAOg3gqLZ9S7Gdvu4cI2wWIV+io01JOcLmBT1GYew2u8Eu88++8R5/eQP0JHpBkGHfThyd7OhSVVwLCDUT2A779A8bzMNwEJYsyo7KhW8UDQAOVe9ayqOu53PHYOTTmZg9QZXK9h0TL13Qk99ObbZ8cV9AI865VFoVvDgHRD2Gzt2bKRKCsNiVLo5cwmt2w8pg/1YpXf+0nQH0NzdNiyfs0JtKuHoWtQmEAJSrWLWu75Wt3cMDlogTDxN21hSsRGy0BbduCgXT3v5hgRAcX8CQSu0V5NgJvoq7lf0CwBJNGk8VujIOxynQp0ojXXJyQjVmP2vBEIFikAEYJJWlWVUZiyivhQVjho1Klol2gU+y2FJQntAVw4cYSvBoy3+h6bVNnRAe13oo48+Gu9WdlyimuL+eN0+QOQ7HGvfWiCVTJyTAEVKCWz72R/FAsArNX0mH2Ztm+oCH2JRihKS/2KF4vgpNKVREtahlmfeBogm+oAPNAGJWp/qBGWojVTTuQfz/s/IB3N0fozsnHPWio40bvjfHwK22MN+orvRo0fHCwOEqIlFETTqcPE0UkJKAAqotXwOEAkmZdA466J1AShZ9P+GEN+E/AByPr7GMfyMaoIQXGXCTCorMFYvn027W6wBdFUBgPKLrBJTjMsTXsoi4CmzdUxrtM1AlWJEVzRJkTJRicGiHY/3clG00OwoIVmAR4NRkotDEarahMUaCAWw/EWxoU/gmJQjYEkmAItWUtw/fQYmS7AfwfosbEezqArF1fZjX7RMUUz4US65kwAi7WvsKZRP5yrjvWNwhuaRjIti4iIYjyZhTbQsNZpsnzStjLaUcDhadIQK0CGh02qCE2WZBqilNFZDCQDN2uRAHHKjCDCNwzloOoGL6BzvJdp0Hn0MBHCiymSdQHUMpfEbX2bcxlZm6xgcF0TrxuTTyQRmalpxEucX+Zd/sR0YMv+UlKIyLQlMGYbFsCogFfuwHy13LopAGCwX9dRal31rm3305zjC9D0JGEgotp6A/Z4A4GOBkpJYgQCmsK3M1jE4hMqfiHBQBA7nYEU9Iq3igDl4Ya7frABFEWiQNqMIVsBJEzbQa4ERoSnJABZFoVPnFmwMpPG1gmIdtJ9QHQ9YvobioEkBCyusFTRg5EUUCZjOy3IoineKyBKL11p77sF87xgcA6Lhwte0coZluEgV6kQFaXAEQZgSN8JJ2ggI4LnIor9KxxEC4QkmVByAYQ2bgKFVwahcp1lZYDin45WI+BG5jt9RMOvQUBb65QsFPHwkJQIusIxD2O16apUpjX2w7x2D48SEiYb4G4NGb+edd14UmnJNrfAA6uKTAJoNnqYruXiqE6fM+QLWejZW2IrVOAclIljCpkjyHfM9PgPGS6lIlZl1aEBkqRTCePlBjGCaxJh8FrQIGioJjoswuOHDh8coTFKn9G+wKEvpQzlmMIOnuSxGRs4iRXloT7aOIlPyaQzNGitGg8aGHs2a6ktlGXUReJo4ZOGaIMKLr1RNF2oDzNwUWgMkS6tVwGZjaeX30v7DLmtg2kJg5i6nIFSZNEriUwiSlTXT9OSw5UG03DyQ/AetoBATcQRFa9sBPI1RJQCNeaFV/hLQBEzgLBMgfgOS8o4cyNQAZkh5mrHky8DGJ6D6L7OVcpdBcUA0Xb5yzjnnRDpQ3WVVMmiJHI5Pt4Gk6MlFAZDDZ2lCaoITbsuLOGOCouX7549ylDMRjOPbbc4jox8xYkSkMf2iXn3yJ2hNJAhASmSschoBinTBv1JG3/yjqQ+v2ryu3THV2790cJwIQDhaLUpojZtpuGhJoACg5JxFOqwJrRAMzSQ8ZRbWBygWJwmkpYIA1jlQ0FDvImu3A4QC8Yv8iXPzXeiXFbHI5A/9xmLRmEjUtaA4d1AABqW1Q621Y2n0vSvgOCEBuBAOnLYRtoweZdE6F0QA3mmo/VGJXAO1sCCUAkSFRTRmphU9tkNl9S7euZRiPNMzLfU1DhZC+MZlrMBBc16+CxSMBTjozjWUTWdpzF0DxwlcjGxaOSY5W1aBMtAdAFKzL+EAjuMemlceRFJuAVFxYC2SvTIFQRHkWRaLsHBgsVzAoVjnYqEAQG8SZNSc8qOyx5Nkkd67Ck46iQtFTy5coiqvkICyrJSVEwSNRROcs5BX6IsKk3Wl/sp854NYhbEIqY1LiI1iNaCYE0KrLEWORoHKsN5m19ETcJoNov/7wBLoeMpg4G77W8uQQB+cMqTYpT764HRJsGV02wenDCl2qY8+OF0SbBnd9sEpQ4pd6qMPTpcEW0a3fXDKkGKX+vgvbL5CBjBM224AAAAASUVORK5CYII=;" vertex="1" parent="1">
          <mxGeometry x="128.75" y="215.09999999999997" width="53" height="60.2" as="geometry" />
        </mxCell>
        <mxCell id="xwxbCeUritOEieoB_8Dk-413" value="" style="shape=mxgraph.gcp2.doubleRect;strokeColor=#dddddd;shadow=1;strokeWidth=1;" vertex="1" parent="1">
          <mxGeometry x="250.5" y="222" width="169.5" height="68" as="geometry" />
        </mxCell>
        <mxCell id="xwxbCeUritOEieoB_8Dk-414" value="&lt;font color=&quot;#000000&quot;&gt;Device Registration&lt;br&gt;and Management&lt;br&gt;&lt;/font&gt;Cloud IoT Core" style="dashed=0;connectable=0;html=1;fillColor=#5184F3;strokeColor=none;shape=mxgraph.gcp2.hexIcon;prIcon=cloud_iot_core;part=1;labelPosition=right;verticalLabelPosition=middle;align=left;verticalAlign=middle;spacingLeft=5;fontColor=#999999;fontSize=12;" vertex="1" parent="xwxbCeUritOEieoB_8Dk-413">
          <mxGeometry y="0.5" width="44" height="39" relative="1" as="geometry">
            <mxPoint x="5" y="-19.5" as="offset" />
          </mxGeometry>
        </mxCell>
        <mxCell id="xwxbCeUritOEieoB_8Dk-425" value="" style="edgeStyle=orthogonalEdgeStyle;fontSize=12;html=1;endArrow=blockThin;endFill=1;rounded=0;strokeWidth=2;endSize=4;startSize=4;dashed=0;strokeColor=#4284F3;" edge="1" parent="xwxbCeUritOEieoB_8Dk-413">
          <mxGeometry width="100" relative="1" as="geometry">
            <mxPoint x="169.5" y="38" as="sourcePoint" />
            <mxPoint x="229.5" y="38" as="targetPoint" />
          </mxGeometry>
        </mxCell>
        <mxCell id="xwxbCeUritOEieoB_8Dk-418" value="" style="edgeStyle=orthogonalEdgeStyle;fontSize=12;html=1;endArrow=blockThin;endFill=1;rounded=0;strokeWidth=2;endSize=4;startSize=4;dashed=0;strokeColor=#4284F3;entryX=0.003;entryY=0.412;entryDx=0;entryDy=0;entryPerimeter=0;" edge="1" parent="1" target="xwxbCeUritOEieoB_8Dk-413">
          <mxGeometry width="100" relative="1" as="geometry">
            <mxPoint x="200" y="250" as="sourcePoint" />
            <mxPoint x="300" y="250" as="targetPoint" />
          </mxGeometry>
        </mxCell>
      </root>
    </mxGraphModel>
  </diagram>
</mxfile>
